<svg width="462" height="462" viewBox="0 0 462 462" fill="none" xmlns="http://www.w3.org/2000/svg">
<path d="M230.963 65.269C126.325 65.269 41.5 131.213 41.5 212.559C41.5 247.244 56.924 279.127 82.727 304.293C85.772 307.263 86.918 311.68 85.798 315.783C76.721 349.039 55.705 378.682 46.254 390.864C44.373 393.288 46.15 396.806 49.218 396.729C70.184 396.206 129.002 391.513 164.615 356.499C167.515 353.648 171.674 352.522 175.631 353.46C193.135 357.611 211.711 359.849 230.962 359.849C335.599 359.849 420.425 293.905 420.425 212.559C420.426 131.213 335.6 65.269 230.963 65.269V65.269Z" fill="#3F51B5"/>
<path d="M115.247 343.177C93.96 365.84 81.757 375.725 49.988 385.92C48.614 387.786 47.354 389.447 46.255 390.863C44.374 393.287 46.151 396.805 49.219 396.728C70.186 396.205 129.003 391.512 164.616 356.498C167.516 353.647 171.676 352.521 175.633 353.459C175.624 353.442 175.613 353.426 175.605 353.409C161.146 349.988 147.422 345.26 134.658 339.401C128.042 336.367 120.229 337.872 115.247 343.177V343.177Z" fill="#3F51B5"/>
<path d="M230.963 65.269C220.232 65.269 209.715 65.973 199.471 67.306C289.117 78.967 357.442 139.555 357.442 212.559C357.442 285.544 289.152 346.12 199.54 357.803C209.764 359.132 220.254 359.849 230.963 359.849C335.6 359.849 420.426 293.905 420.426 212.559C420.426 131.213 335.6 65.269 230.963 65.269V65.269Z" fill="#3F51B5"/>
<path d="M114.258 230.219C124.471 230.219 132.751 221.939 132.751 211.726C132.751 201.513 124.471 193.233 114.258 193.233C104.045 193.233 95.765 201.513 95.765 211.726C95.765 221.939 104.045 230.219 114.258 230.219Z" fill="#F0F7FF"/>
<path d="M188.411 230.219C198.624 230.219 206.904 221.939 206.904 211.726C206.904 201.513 198.624 193.233 188.411 193.233C178.198 193.233 169.918 201.513 169.918 211.726C169.918 221.939 178.198 230.219 188.411 230.219Z" fill="#F0F7FF"/>
<path d="M262.564 230.219C272.777 230.219 281.057 221.939 281.057 211.726C281.057 201.513 272.777 193.233 262.564 193.233C252.351 193.233 244.071 201.513 244.071 211.726C244.071 221.939 252.351 230.219 262.564 230.219Z" fill="#F0F7FF"/>
<path d="M336.716 230.219C346.929 230.219 355.209 221.939 355.209 211.726C355.209 201.513 346.929 193.233 336.716 193.233C326.503 193.233 318.223 201.513 318.223 211.726C318.223 221.939 326.503 230.219 336.716 230.219Z" fill="#F0F7FF"/>
<path d="M427.926 212.559C427.926 119.057 329.364 57.769 230.963 57.769C132.169 57.769 34 119.345 34 212.559C34 247.824 49.445 282.309 77.491 309.663C78.564 310.71 78.975 312.299 78.563 313.809C69.754 346.08 48.89 375.232 40.329 386.268C37.666 389.701 37.228 394.241 39.187 398.118C41.102 401.909 44.888 404.231 49.118 404.231C49.214 404.231 49.309 404.23 49.405 404.228C91.298 403.183 139.857 391.359 169.873 361.849C170.922 360.817 172.427 360.409 173.901 360.76C192.343 365.134 211.542 367.351 230.963 367.351C329.728 367.349 427.926 305.798 427.926 212.559V212.559ZM177.362 346.163C170.841 344.614 164.108 346.48 159.357 351.151C129.34 380.664 80.325 387.373 57.122 388.864C67.721 374.233 84.954 347.362 93.034 317.758C94.881 310.992 92.938 303.776 87.964 298.924C62.474 274.063 49 244.198 49 212.559C49 135.479 130.628 72.769 230.963 72.769C331.298 72.769 412.926 135.478 412.926 212.559C412.926 289.64 331.298 352.349 230.963 352.349C212.706 352.349 194.673 350.267 177.362 346.163V346.163Z" fill="black"/>
<path d="M114.258 185.733C99.925 185.733 88.265 197.394 88.265 211.726C88.265 226.058 99.925 237.719 114.258 237.719C128.591 237.719 140.251 226.058 140.251 211.726C140.251 197.394 128.591 185.733 114.258 185.733ZM114.258 222.72C108.196 222.72 103.265 217.788 103.265 211.727C103.265 205.666 108.197 200.734 114.258 200.734C120.319 200.734 125.251 205.666 125.251 211.727C125.251 217.788 120.319 222.72 114.258 222.72Z" fill="black"/>
<path d="M188.411 185.733C174.078 185.733 162.418 197.394 162.418 211.726C162.418 226.058 174.078 237.719 188.411 237.719C202.744 237.719 214.404 226.058 214.404 211.726C214.404 197.394 202.744 185.733 188.411 185.733ZM188.411 222.72C182.349 222.72 177.418 217.788 177.418 211.727C177.418 205.666 182.35 200.734 188.411 200.734C194.472 200.734 199.404 205.666 199.404 211.727C199.404 217.788 194.473 222.72 188.411 222.72Z" fill="black"/>
<path d="M262.563 185.733C248.23 185.733 236.57 197.394 236.57 211.726C236.57 226.058 248.23 237.719 262.563 237.719C276.896 237.719 288.556 226.058 288.556 211.726C288.556 197.394 276.896 185.733 262.563 185.733ZM262.563 222.72C256.501 222.72 251.57 217.788 251.57 211.727C251.57 205.666 256.502 200.734 262.563 200.734C268.624 200.734 273.556 205.666 273.556 211.727C273.556 217.788 268.625 222.72 262.563 222.72Z" fill="black"/>
<path d="M336.717 185.733C322.384 185.733 310.724 197.394 310.724 211.726C310.724 226.058 322.384 237.719 336.717 237.719C351.05 237.719 362.71 226.058 362.71 211.726C362.71 197.394 351.05 185.733 336.717 185.733ZM336.717 222.72C330.655 222.72 325.724 217.788 325.724 211.727C325.724 205.666 330.656 200.734 336.717 200.734C342.778 200.734 347.71 205.666 347.71 211.727C347.71 217.788 342.778 222.72 336.717 222.72Z" fill="black"/>
</svg>
