<svg width="462" height="462" viewBox="0 0 462 462" fill="none" xmlns="http://www.w3.org/2000/svg">
<path d="M230.963 65.269C126.325 65.269 41.5 131.213 41.5 212.559C41.5 247.244 56.924 279.127 82.727 304.293C85.772 307.263 86.918 311.68 85.798 315.783C76.721 349.039 55.705 378.682 46.254 390.864C44.373 393.288 46.15 396.806 49.218 396.729C70.184 396.206 129.002 391.513 164.615 356.499C167.515 353.648 171.674 352.522 175.631 353.46C193.135 357.611 211.711 359.849 230.962 359.849C335.599 359.849 420.425 293.905 420.425 212.559C420.426 131.213 335.6 65.269 230.963 65.269V65.269Z" fill="#3F51B5"/>
<path d="M115.247 343.177C93.96 365.84 81.757 375.725 49.988 385.92C48.614 387.786 47.354 389.447 46.255 390.863C44.374 393.287 46.151 396.805 49.219 396.728C70.186 396.205 129.003 391.512 164.616 356.498C167.516 353.647 171.676 352.521 175.633 353.459C175.624 353.442 175.613 353.426 175.605 353.409C161.146 349.988 147.422 345.26 134.658 339.401C128.042 336.367 120.229 337.872 115.247 343.177V343.177Z" fill="#3F51B5"/>
<path d="M230.963 65.269C220.232 65.269 209.715 65.973 199.471 67.306C289.117 78.967 357.442 139.555 357.442 212.559C357.442 285.544 289.152 346.12 199.54 357.803C209.764 359.132 220.254 359.849 230.963 359.849C335.6 359.849 420.426 293.905 420.426 212.559C420.426 131.213 335.6 65.269 230.963 65.269V65.269Z" fill="#3F51B5"/>
<path d="M427.926 212.559C427.926 119.057 329.364 57.769 230.963 57.769C132.169 57.769 34 119.345 34 212.559C34 247.824 49.445 282.309 77.491 309.663C78.564 310.71 78.975 312.299 78.563 313.809C69.754 346.08 48.89 375.232 40.329 386.268C37.666 389.701 37.228 394.241 39.187 398.118C41.102 401.909 44.888 404.231 49.118 404.231C49.214 404.231 49.309 404.23 49.405 404.228C91.298 403.183 139.857 391.359 169.873 361.849C170.922 360.817 172.427 360.409 173.901 360.76C192.343 365.134 211.542 367.351 230.963 367.351C329.728 367.349 427.926 305.798 427.926 212.559V212.559ZM177.362 346.163C170.841 344.614 164.108 346.48 159.357 351.151C129.34 380.664 80.325 387.373 57.122 388.864C67.721 374.233 84.954 347.362 93.034 317.758C94.881 310.992 92.938 303.776 87.964 298.924C62.474 274.063 49 244.198 49 212.559C49 135.479 130.628 72.769 230.963 72.769C331.298 72.769 412.926 135.478 412.926 212.559C412.926 289.64 331.298 352.349 230.963 352.349C212.706 352.349 194.673 350.267 177.362 346.163V346.163Z" fill="black"/>
</svg>
